PathFileType	4	(X/Y/Z)	D:\TRACE\spot_10-12-23\spot_arm_motion_1_2-v60.trc
DataRate	CameraRate	NumFrames	NumMarkers	Units	OrigDataRate	OrigDataStartFrame	OrigNumFrames
100.00	100.00	      35	9	mm	100.00	4376	      7000
Frame#	Time	front left toe			Front right toe			aft left toe			aft right toe			Arm			FL body			FR body			AL Body			AR Body			
		X1	Y1	Z1	X2	Y2	Z2	X3	Y3	Z3	X4	Y4	Z4	X5	Y5	Z5	X6	Y6	Z6	X7	Y7	Z7	X8	Y8	Z8	X9	Y9	Z9	

4376	43.750	-272.94821	22.88881	-27.09909	240.54118	30.29490	-117.39762	-164.80331	4.23883	557.37262	345.38519	4.94464	463.20306	70.30522	796.66125	-751.89508	-117.24223	546.54492	-119.33098	32.74693	551.32330	-147.85953	45.47904	543.62665	749.18488	194.56418	541.54968	723.13898	
4377	43.760	-273.28320	23.03999	-27.02038	240.11263	30.33378	-117.25592	-164.93240	4.16006	557.36963	345.07962	4.65633	463.28421	69.73300	796.69269	-751.50568	-116.91035	546.70404	-119.23195	33.05618	551.47186	-147.80484	46.39096	542.90210	749.25549	194.91702	541.05151	723.49536	
4378	43.770	-273.57352	23.22846	-26.92463	239.86172	30.29462	-117.14634	-165.04868	3.95899	557.42096	344.71692	4.41914	463.33194	70.04164	796.72778	-751.47034	-116.67566	546.85980	-119.17196	33.62996	551.54016	-147.66049	46.86133	542.44519	749.41962	195.41486	540.68622	723.20081	
4379	43.780	-273.71652	23.28768	-26.92874	239.60432	30.28412	-117.09924	-165.35638	3.69924	557.47913	344.53442	4.31404	463.32965	70.41130	796.76117	-751.35706	-116.46436	546.99341	-119.11618	34.19104	551.64594	-147.57544	47.70911	541.78143	749.08026	195.99196	540.19489	723.42291	
4380	43.790	-274.00946	23.34808	-26.98226	239.43573	30.23943	-116.97613	-165.51796	3.34128	557.63275	344.14169	4.04220	463.38434	70.88068	796.78333	-751.21710	-116.11221	547.05750	-119.05051	33.80277	552.36816	-148.92769	47.78372	541.30054	749.23236	196.32889	539.74420	723.59863	
4381	43.800	-274.35663	23.47900	-27.01053	239.31255	30.20819	-116.90944	-165.69696	3.11708	557.70807	344.00143	3.82786	463.39374	71.30539	796.83777	-751.12036	-115.62796	547.08386	-118.90978	33.90875	552.69446	-148.90953	48.08537	540.84259	749.24713	196.75914	539.23663	723.86346	
4382	43.810	-274.49680	23.54308	-26.88265	239.13559	30.18826	-116.82821	-165.91147	3.07785	557.77264	343.19794	3.65232	463.84879	71.79458	796.88074	-750.87769	-115.25373	547.06488	-118.75858	34.17503	552.82965	-148.73486	49.03075	540.38763	750.00574	196.93523	539.03265	723.97363	
4383	43.820	-274.78531	23.58347	-26.88417	238.83839	30.13955	-116.80177	-166.16219	3.06862	557.78198	343.49872	3.37057	463.55298	72.32346	796.86066	-750.78058	-114.81314	547.12134	-118.49431	34.26364	552.78333	-148.52965	48.58137	540.49939	750.52405	197.09613	538.86578	724.01929	
4384	43.830	-275.18130	23.77822	-26.87054	238.57582	30.10471	-116.82037	-166.46477	2.88740	557.83441	343.24921	3.06536	463.57144	72.65186	796.79810	-750.68945	-114.57208	547.18921	-118.30584	34.53286	552.90265	-148.46579	48.72683	540.31860	750.45337	197.31102	538.49536	724.18213	
4385	43.840	-275.54126	23.91530	-26.84369	238.24333	30.12430	-116.77284	-166.79262	2.63469	557.93427	343.01111	2.86164	463.64700	72.85758	796.81262	-750.68756	-114.26366	547.30072	-118.15299	35.30901	552.55090	-147.54410	48.94167	539.92950	750.65356	197.53954	538.07788	724.34711	
4386	43.850	-275.75119	23.92023	-26.81819	237.80399	30.34694	-116.80486	-167.09534	2.48574	557.91962	342.82236	2.83596	463.78604	73.10322	796.72656	-750.62408	-113.99878	547.54718	-118.04774	35.61203	552.76532	-147.28580	49.16819	539.52087	750.88788	197.51575	537.84088	724.30487	
4387	43.860	-275.97534	23.85695	-26.76608	237.61317	30.35102	-116.73575	-167.45041	2.24182	557.85779	342.49136	2.71205	463.91818	73.34781	796.76239	-750.50781	-113.82246	547.74811	-117.95811	35.96764	553.08582	-147.00465	49.31581	539.16949	751.11786	197.63112	537.52954	724.56940	
4388	43.870	-276.43924	23.89877	-26.66176	237.24516	30.24187	-116.54572	-167.75487	2.04700	557.93567	341.92969	2.49124	464.08362	73.69048	796.75671	-750.35645	-113.64377	547.96149	-117.80086	36.08545	553.29889	-146.88705	48.90339	539.21356	751.24652	197.84651	537.27881	724.69366	
4389	43.880	-276.78204	23.98075	-26.56785	236.84569	30.32409	-116.46815	-168.21033	2.00002	558.06549	341.48795	2.23574	464.05228	74.14393	796.74762	-750.29279	-113.40953	548.28082	-117.62635	36.18458	553.59497	-146.73946	49.24446	538.94647	751.62280	198.00462	537.02594	724.83704	
4390	43.890	-277.22858	24.16348	-26.49396	236.52284	30.37674	-116.42203	-168.60443	1.86470	558.17041	341.05658	2.14361	464.26093	74.18209	796.71387	-750.16315	-113.25208	548.58606	-117.52222	36.49622	553.90485	-146.61278	48.82075	538.41052	750.95563	198.21233	536.76221	725.32581	
4391	43.900	-277.49429	24.11462	-26.48504	235.96014	30.46629	-116.30408	-169.12817	1.76878	558.22028	340.56796	1.97872	464.26575	74.28849	796.72565	-749.97308	-113.08366	548.67474	-117.48119	36.47187	554.25867	-147.07761	49.00937	538.14722	751.20068	198.16669	536.59906	725.57159	
4392	43.910	-277.85629	24.09764	-26.48936	235.53044	30.46879	-116.19988	-169.52779	1.69801	558.32202	339.52716	1.89421	464.73709	74.52371	796.72516	-749.60394	-112.97537	548.68317	-117.36570	36.53361	554.23999	-146.99409	49.72762	537.68719	751.04388	198.13539	536.46338	725.69800	
4393	43.920	-278.45364	24.19526	-26.43378	235.25565	30.43569	-116.11632	-169.90424	1.51524	558.46173	339.85364	1.78893	464.34985	74.37195	796.77069	-748.81873	-112.98764	548.60144	-117.23905	36.54700	554.09698	-146.90916	49.70985	537.66467	751.09265	198.09468	536.36792	725.75818	
4394	43.930	-278.79581	24.15578	-26.35028	234.86278	30.36789	-116.15764	-170.35001	1.46318	558.33453	339.48700	1.67614	464.34528	74.54147	797.19037	-747.84540	-113.07071	548.34656	-117.15518	36.42895	553.77539	-146.92029	49.07265	538.09729	751.33105	198.26749	536.38361	725.72015	
4395	43.940	-279.35828	24.20887	-26.24511	234.38268	30.36336	-116.13145	-170.72661	1.39423	558.29767	338.96136	1.55826	464.36264	75.18110	797.88104	-746.33380	-113.50606	547.98419	-117.12930	36.03430	552.97742	-146.40036	49.21360	538.26093	751.12537	198.60674	536.44379	725.61487	
4396	43.950	-279.84406	24.02637	-26.23630	233.63490	30.52690	-115.92575	-171.09184	1.44248	558.31476	338.44122	1.37578	464.34006	77.23119	799.06097	-744.65125	-114.18258	547.40338	-117.15214	35.70830	552.48291	-147.12515	49.70321	538.47156	751.11798	198.76692	536.64252	724.96252	
4397	43.960	-280.59814	23.91531	-25.91811	233.04573	30.56695	-116.00510	-171.48749	1.47352	558.28625	337.87439	1.19553	464.31125	77.86774	800.75739	-742.11017	-114.85689	546.88043	-117.24106	34.71811	551.84979	-147.17197	50.27018	538.56787	751.01556	198.96478	536.62689	724.49170	
4398	43.970	-281.34167	23.76763	-25.77120	233.17035	30.63887	-116.07291	-171.87698	1.45134	558.44452	337.55331	0.99540	464.16025	79.98245	803.33752	-739.72180	-115.88599	546.29535	-117.00403	33.75535	551.07739	-146.91399	51.40789	538.64471	751.39880	199.60268	536.34869	724.19489	
4399	43.980	-281.96588	23.63994	-25.67211	231.88913	30.72397	-116.32777	-172.15982	1.41788	558.60419	337.20023	0.73552	464.07431	83.29797	806.33051	-737.09906	-116.68242	545.63147	-116.89932	32.59450	550.64087	-147.09708	52.37987	537.92773	750.77008	200.39890	536.11658	723.84387	
4400	43.990	-282.70422	23.68144	-25.60301	230.83083	30.77349	-116.31287	-172.61133	1.40227	558.62915	336.79337	0.42305	463.87637	86.24384	809.38873	-732.87103	-117.84317	545.46173	-116.91351	31.46497	550.45160	-147.34137	51.85143	538.03601	750.51074	200.56529	535.94769	723.03754	
4401	44.000	-283.13477	23.71148	-25.58064	230.37059	30.85757	-116.32642	-173.20100	1.38171	558.62189	336.12625	0.23725	463.89307	91.25878	813.99164	-730.21313	-118.85548	545.27795	-117.05035	30.22104	550.54626	-148.26006	51.65072	538.11346	750.39905	200.79073	535.63818	722.62463	
4402	44.010	-283.89511	23.88236	-25.40684	230.61536	31.13234	-116.27739	-173.79262	1.21122	558.70105	334.74445	-0.03076	464.17249	94.52736	819.78003	-726.93628	-120.02290	545.27271	-117.08666	29.30687	550.30566	-147.84552	51.69997	537.63416	750.21631	200.86423	535.23914	722.31860	
4403	44.020	-284.78952	24.01228	-25.30556	229.33397	31.15410	-116.05828	-174.22612	1.08350	558.69385	335.35370	-0.02634	463.73090	101.10780	824.85162	-724.67108	-120.60799	545.18018	-117.00728	28.47769	550.50598	-148.00543	51.40582	536.44983	749.39532	200.55052	534.71179	722.02661	
4404	44.030	-284.83307	23.97563	-25.28452	229.89977	31.34282	-115.81638	-174.91161	0.86225	558.65240	334.68762	-0.01909	463.94196	106.80418	830.47186	-721.94647	-121.08890	545.46240	-117.14005	28.07466	550.81995	-148.09300	50.87447	535.80688	749.31842	199.67841	534.16943	721.61737	
4405	44.040	-285.12064	24.01997	-25.31812	229.02718	31.14263	-116.00222	-175.81247	0.80852	558.73114	333.93448	0.00529	464.16708	112.20531	836.03656	-719.41534	-121.39975	546.06061	-117.34498	27.88691	551.33258	-148.07133	51.40683	534.74713	749.47632	198.88264	533.50848	721.63879	
4406	44.050	-285.69324	24.37820	-25.48679	228.87856	31.20842	-116.39138	-176.56366	0.58645	558.68774	333.01334	-0.00040	464.28177	117.79485	841.61292	-717.22021	-121.51625	546.65155	-117.58645	28.05232	552.03912	-148.09427	49.24778	534.72400	749.92047	197.89648	532.89624	721.88184	
4407	44.060	-286.09451	24.60068	-25.75153	227.42706	31.03562	-116.05359	-177.17163	0.40282	558.80914	332.52850	-0.08236	464.42575	122.74419	846.65601	-715.41388	-121.25294	547.45361	-118.10431	28.18073	552.92017	-148.13387	47.76944	533.48242	749.64246	196.60925	532.03827	722.27557	
4408	44.070	-286.58386	24.96463	-26.14217	226.78581	30.78634	-116.06733	-178.07077	0.26356	558.70941	331.66235	-0.04495	464.52954	126.91273	851.38013	-713.71844	-120.59793	548.38220	-118.48125	29.06795	553.77332	-148.02341	47.02665	532.06531	749.27850	194.53348	531.13885	722.98987	
4409	44.080	-287.03699	25.25638	-26.37051	227.74098	30.94405	-115.41203	-179.03090	-0.08333	558.73303	330.88635	0.06158	464.75961	129.99388	855.54065	-712.55023	-119.82170	549.40747	-119.01839	29.57909	554.94202	-148.13817	44.12459	531.76581	750.11310	192.73248	530.12885	723.44556	
4410	44.090	-287.24393	25.44439	-26.61785	226.91592	30.58438	-115.70374	-179.70390	-0.27419	558.71350	330.07626	0.05175	465.10297	131.92230	858.85938	-711.73621	-118.67529	550.36658	-119.31030	30.98552	556.15564	-148.48648	42.38459	530.75330	750.25116	190.88022	529.15161	724.00934	
